# This file uses centimeters as units for non-parametric coordinates.

mtllib objeto_07_aceite.mtl
g default
v 0.735024 0.109103 -0.238823
v 0.625248 0.109103 -0.454269
v 0.454269 0.109103 -0.625248
v 0.238824 0.109103 -0.735023
v 0.000000 0.109103 -0.772849
v -0.238823 0.109103 -0.735023
v -0.454269 0.109103 -0.625248
v -0.625248 0.109103 -0.454269
v -0.735023 0.109103 -0.238823
v -0.772849 0.109103 0.000000
v -0.735023 0.109103 0.238824
v -0.625248 0.109103 0.454269
v -0.454269 0.109103 0.625248
v -0.238823 0.109103 0.735023
v 0.000000 0.109103 0.772849
v 0.238824 0.109103 0.735023
v 0.454269 0.109103 0.625248
v 0.625248 0.109103 0.454269
v 0.735023 0.109103 0.238824
v 0.772849 0.109103 0.000000
v 0.735024 -0.109103 -0.238823
v 0.625248 -0.109103 -0.454269
v 0.454269 -0.109103 -0.625248
v 0.238824 -0.109103 -0.735023
v 0.000000 -0.109103 -0.772849
v -0.238823 -0.109103 -0.735023
v -0.454269 -0.109103 -0.625248
v -0.625248 -0.109103 -0.454269
v -0.735023 -0.109103 -0.238823
v -0.772849 -0.109103 0.000000
v -0.735023 -0.109103 0.238824
v -0.625248 -0.109103 0.454269
v -0.454269 -0.109103 0.625248
v -0.238823 -0.109103 0.735023
v 0.000000 -0.109103 0.772849
v 0.238824 -0.109103 0.735023
v 0.454269 -0.109103 0.625248
v 0.625248 -0.109103 0.454269
v 0.735023 -0.109103 0.238824
v 0.772849 -0.109103 0.000000
v 0.000000 0.109103 0.000000
v 0.000000 -0.109103 0.000000
vt 0.373162 0.328380
vt 0.373162 0.677194
vt 0.384789 0.677194
vt 0.384789 0.328380
vt 0.396417 0.677194
vt 0.396417 0.328380
vt 0.408044 0.677194
vt 0.408044 0.328380
vt 0.419671 0.677194
vt 0.419671 0.328380
vt 0.431298 0.677194
vt 0.431298 0.328380
vt 0.442925 0.677194
vt 0.442925 0.328380
vt 0.454552 0.677194
vt 0.454552 0.328380
vt 0.466179 0.677194
vt 0.466179 0.328380
vt 0.477806 0.677194
vt 0.477806 0.328380
vt 0.489433 0.677194
vt 0.489433 0.328380
vt 0.501061 0.677194
vt 0.501061 0.328380
vt 0.512688 0.677194
vt 0.512688 0.328380
vt 0.524315 0.677194
vt 0.524315 0.328380
vt 0.535942 0.677194
vt 0.535942 0.328380
vt 0.547569 0.677194
vt 0.547569 0.328380
vt 0.559196 0.677194
vt 0.559196 0.328380
vt 0.570823 0.677194
vt 0.570823 0.328380
vt 0.582450 0.677194
vt 0.582450 0.328380
vt 0.594077 0.677194
vt 0.594077 0.328380
vt 0.605704 0.677194
vt 0.605704 0.328380
vt 0.803432 0.274356
vt 0.484685 0.505939
vt 0.859395 0.384189
vt 0.716269 0.187192
vt 0.484685 0.505939
vt 0.803432 0.274356
vt 0.606436 0.131230
vt 0.484685 0.505939
vt 0.716269 0.187192
vt 0.484685 0.111946
vt 0.484685 0.505939
vt 0.606436 0.131230
vt 0.362934 0.131230
vt 0.484685 0.505939
vt 0.484685 0.111946
vt 0.253102 0.187192
vt 0.484685 0.505939
vt 0.362934 0.131230
vt 0.165938 0.274356
vt 0.484685 0.505939
vt 0.253102 0.187192
vt 0.109975 0.384189
vt 0.484685 0.505939
vt 0.165938 0.274356
vt 0.090692 0.505939
vt 0.484685 0.505939
vt 0.109975 0.384189
vt 0.109975 0.627690
vt 0.484685 0.505939
vt 0.090692 0.505939
vt 0.165938 0.737523
vt 0.484685 0.505939
vt 0.109975 0.627690
vt 0.253102 0.824686
vt 0.484685 0.505939
vt 0.165938 0.737523
vt 0.362935 0.880649
vt 0.484685 0.505939
vt 0.253102 0.824686
vt 0.484685 0.899932
vt 0.484685 0.505939
vt 0.362935 0.880649
vt 0.606436 0.880649
vt 0.484685 0.505939
vt 0.484685 0.899932
vt 0.716268 0.824686
vt 0.484685 0.505939
vt 0.606436 0.880649
vt 0.803432 0.737523
vt 0.484685 0.505939
vt 0.716268 0.824686
vt 0.859395 0.627690
vt 0.484685 0.505939
vt 0.803432 0.737523
vt 0.878678 0.505939
vt 0.484685 0.505939
vt 0.859395 0.627690
vt 0.859395 0.384189
vt 0.484685 0.505939
vt 0.878678 0.505939
vt 0.627659 0.867445
vt 0.489434 0.822533
vt 0.607015 0.907961
vt 0.574862 0.940114
vt 0.534346 0.960758
vt 0.489434 0.967871
vt 0.444521 0.960758
vt 0.404005 0.940114
vt 0.371852 0.907961
vt 0.351208 0.867445
vt 0.344095 0.822533
vt 0.351208 0.777620
vt 0.371852 0.737104
vt 0.404005 0.704951
vt 0.444521 0.684307
vt 0.489434 0.677194
vt 0.534346 0.684307
vt 0.574862 0.704951
vt 0.607015 0.737104
vt 0.627659 0.777620
vt 0.634772 0.822533
vn 0.951057 0.000000 -0.309016
vn 0.951057 0.000000 -0.309016
vn 0.809017 0.000000 -0.587785
vn 0.809017 0.000000 -0.587785
vn 0.587785 0.000000 -0.809017
vn 0.587785 0.000000 -0.809017
vn 0.309017 0.000000 -0.951057
vn 0.309017 0.000000 -0.951057
vn -0.000000 0.000000 -1.000000
vn -0.000000 0.000000 -1.000000
vn -0.309017 0.000000 -0.951056
vn -0.309017 0.000000 -0.951056
vn -0.587785 0.000000 -0.809017
vn -0.587785 0.000000 -0.809017
vn -0.809017 0.000000 -0.587785
vn -0.809017 0.000000 -0.587785
vn -0.951057 0.000000 -0.309017
vn -0.951057 0.000000 -0.309017
vn -1.000000 0.000000 0.000000
vn -1.000000 0.000000 0.000000
vn -0.951056 0.000000 0.309017
vn -0.951056 0.000000 0.309017
vn -0.809017 0.000000 0.587785
vn -0.809017 0.000000 0.587785
vn -0.587785 0.000000 0.809017
vn -0.587785 0.000000 0.809017
vn -0.309017 0.000000 0.951057
vn -0.309017 0.000000 0.951057
vn 0.000000 0.000000 1.000000
vn 0.000000 0.000000 1.000000
vn 0.309017 0.000000 0.951057
vn 0.309017 0.000000 0.951057
vn 0.587785 0.000000 0.809017
vn 0.587785 0.000000 0.809017
vn 0.809017 0.000000 0.587785
vn 0.809017 0.000000 0.587785
vn 0.951057 0.000000 0.309017
vn 0.951057 0.000000 0.309017
vn 1.000000 0.000000 0.000001
vn 1.000000 0.000000 0.000001
vn 0.000000 1.000000 0.000000
vn 0.000000 1.000000 0.000000
vn 0.000000 1.000000 0.000000
vn 0.000000 1.000000 -0.000000
vn 0.000000 1.000000 0.000000
vn 0.000000 1.000000 0.000000
vn 0.000000 1.000000 -0.000000
vn 0.000000 1.000000 0.000000
vn 0.000000 1.000000 0.000000
vn 0.000000 1.000000 0.000000
vn 0.000000 1.000000 0.000000
vn 0.000000 1.000000 -0.000000
vn 0.000000 1.000000 -0.000000
vn 0.000000 1.000000 -0.000000
vn 0.000000 1.000000 0.000000
vn 0.000000 1.000000 0.000000
vn 0.000000 1.000000 0.000000
vn 0.000000 1.000000 0.000000
vn 0.000000 1.000000 -0.000000
vn 0.000000 1.000000 -0.000000
vn 0.000000 1.000000 0.000000
vn 0.000000 -1.000000 -0.000000
vn 0.000000 -1.000000 0.000000
vn 0.000000 -1.000000 0.000000
vn 0.000000 -1.000000 0.000000
vn 0.000000 -1.000000 0.000000
vn 0.000000 -1.000000 0.000000
vn 0.000000 -1.000000 0.000000
vn 0.000000 -1.000000 -0.000000
vn 0.000000 -1.000000 -0.000000
vn 0.000000 -1.000000 0.000000
vn 0.000000 -1.000000 0.000000
vn 0.000000 -1.000000 0.000000
vn 0.000000 -1.000000 0.000000
vn 0.000000 -1.000000 -0.000000
vn 0.000000 -1.000000 0.000000
vn 0.000000 -1.000000 0.000000
vn 0.000000 -1.000000 -0.000000
vn 0.000000 -1.000000 0.000000
vn 0.000000 -1.000000 0.000000
vn 0.000000 -1.000000 -0.000000
vn 0.000000 -1.000000 -0.000000
s 1
g pasted__polySurface119 pasted__pCone2 group
usemtl pasted__phong22SG
f 1/1/1 21/2/2 22/3/3 2/4/4
f 2/4/4 22/3/3 23/5/5 3/6/6
f 3/6/6 23/5/5 24/7/7 4/8/8
f 4/8/8 24/7/7 25/9/9 5/10/10
f 5/10/10 25/9/9 26/11/11 6/12/12
f 6/12/12 26/11/11 27/13/13 7/14/14
f 7/14/14 27/13/13 28/15/15 8/16/16
f 8/16/16 28/15/15 29/17/17 9/18/18
f 9/18/18 29/17/17 30/19/19 10/20/20
f 10/20/20 30/19/19 31/21/21 11/22/22
f 11/22/22 31/21/21 32/23/23 12/24/24
f 12/24/24 32/23/23 33/25/25 13/26/26
f 13/26/26 33/25/25 34/27/27 14/28/28
f 14/28/28 34/27/27 35/29/29 15/30/30
f 15/30/30 35/29/29 36/31/31 16/32/32
f 16/32/32 36/31/31 37/33/33 17/34/34
f 17/34/34 37/33/33 38/35/35 18/36/36
f 18/36/36 38/35/35 39/37/37 19/38/38
f 19/38/38 39/37/37 40/39/39 20/40/40
f 20/40/40 40/39/39 21/41/2 1/42/1
s 2
f 2/43/41 41/44/42 1/45/43
f 3/46/44 41/47/42 2/48/41
f 4/49/45 41/50/42 3/51/44
f 5/52/46 41/53/42 4/54/45
f 6/55/47 41/56/42 5/57/46
f 7/58/48 41/59/42 6/60/47
f 8/61/49 41/62/42 7/63/48
f 9/64/50 41/65/42 8/66/49
f 10/67/51 41/68/42 9/69/50
f 11/70/52 41/71/42 10/72/51
f 12/73/53 41/74/42 11/75/52
f 13/76/54 41/77/42 12/78/53
f 14/79/55 41/80/42 13/81/54
f 15/82/56 41/83/42 14/84/55
f 16/85/57 41/86/42 15/87/56
f 17/88/58 41/89/42 16/90/57
f 18/91/59 41/92/42 17/93/58
f 19/94/60 41/95/42 18/96/59
f 20/97/61 41/98/42 19/99/60
f 1/100/43 41/101/42 20/102/61
s 3
f 21/103/62 42/104/63 22/105/64
f 22/105/64 42/104/63 23/106/65
f 23/106/65 42/104/63 24/107/66
f 24/107/66 42/104/63 25/108/67
f 25/108/67 42/104/63 26/109/68
f 26/109/68 42/104/63 27/110/69
f 27/110/69 42/104/63 28/111/70
f 28/111/70 42/104/63 29/112/71
f 29/112/71 42/104/63 30/113/72
f 30/113/72 42/104/63 31/114/73
f 31/114/73 42/104/63 32/115/74
f 32/115/74 42/104/63 33/116/75
f 33/116/75 42/104/63 34/117/76
f 34/117/76 42/104/63 35/118/77
f 35/118/77 42/104/63 36/119/78
f 36/119/78 42/104/63 37/120/79
f 37/120/79 42/104/63 38/121/80
f 38/121/80 42/104/63 39/122/81
f 39/122/81 42/104/63 40/123/82
f 40/123/82 42/104/63 21/103/62
